<svg xmlns="http://www.w3.org/2000/svg" viewBox="0 0 1600 1130" font-family="Helvetica Neue, Arial, sans-serif">
  <rect x="0" y="0" width="1600" height="1130" fill="#ffffff"/>

  <!-- Title block -->
  <text x="1080" y="70" font-size="21" font-weight="700" fill="#1f2937">Van water system — piping diagram</text>
  <text x="1080" y="95" font-size="12.5" fill="#6b7280">Fresh water · recirculating shower · engine &amp; hydronic heat · grey water</text>

  <!-- ============ UNDER-VAN COOLANT ZONE ============ -->
  <rect x="40" y="40" width="1000" height="190" rx="10" fill="#ddeaf6" stroke="#9db8d2" stroke-width="1"/>
  <text x="60" y="68" font-size="13" font-weight="700" fill="#35506b">Under van / engine bay — coolant circuit</text>

  <!-- Espar Hydronic B5 -->
  <rect x="80" y="100" width="170" height="70" rx="6" fill="#ffffff" stroke="#1f2937" stroke-width="1.5"/>
  <text x="165" y="140" font-size="13" font-weight="700" text-anchor="middle" fill="#1f2937">Espar Hydronic B5</text>

  <!-- Coolant pump -->
  <circle cx="330" cy="160" r="15" fill="#ffffff" stroke="#1f2937" stroke-width="1.5"/>
  <polygon points="338,152 338,168 322,160" fill="#1f2937"/>
  <text x="330" y="198" font-size="12" text-anchor="middle" fill="#1f2937">Coolant pump</text>

  <!-- Combination valve -->
  <rect x="420" y="95" width="180" height="90" rx="6" fill="#ffffff" stroke="#1f2937" stroke-width="1.5"/>
  <text x="510" y="128" font-size="13" font-weight="700" text-anchor="middle" fill="#1f2937">Combination valve</text>
  <text x="510" y="148" font-size="11" text-anchor="middle" fill="#6b7280">6-port · opens ≈70 °C</text>

  <!-- Engine block with Y fittings on heater hoses -->
  <rect x="780" y="85" width="180" height="100" rx="6" fill="#ffffff" stroke="#1f2937" stroke-width="1.5"/>
  <text x="870" y="140" font-size="13" font-weight="700" text-anchor="middle" fill="#1f2937">Engine block</text>
  <text x="688" y="142" font-size="10.5" text-anchor="middle" fill="#35506b">2× Y fittings</text>

  <!-- Coolant lines (dashed red) -->
  <g stroke="#b3261e" stroke-width="2.5" fill="none" stroke-dasharray="8 6">
    <line x1="250" y1="120" x2="420" y2="120"/>
    <line x1="420" y1="160" x2="345" y2="160"/>
    <line x1="315" y1="160" x2="250" y2="160"/>
    <path d="M470 185 V255 H240 V320 H300"/>
    <line x1="430" y1="320" x2="540" y2="320"/>
    <path d="M670 320 H706 V285 H720"/>
    <path d="M810 245 V205 H550 V185"/>
    <line x1="600" y1="114" x2="688" y2="114"/>
    <line x1="600" y1="160" x2="688" y2="160"/>
    <path d="M780 102 H714 L688 114 M780 126 H714 L688 114"/>
    <path d="M780 148 H714 L688 160 M780 172 H714 L688 160"/>
  </g>
  <!-- Coolant coils inside heat exchangers (solid) -->
  <path d="M300 320 L314 306 L328 334 L342 306 L356 334 L370 306 L384 334 L398 306 L412 334 L430 320" stroke="#b3261e" stroke-width="2" fill="none"/>
  <path d="M540 320 L554 306 L568 334 L582 306 L596 334 L610 306 L624 334 L638 306 L652 334 L670 320" stroke="#b3261e" stroke-width="2" fill="none"/>
  <!-- Coolant flow arrows -->
  <g fill="#b3261e">
    <polygon points="330,116 340,120 330,124"/>
    <polygon points="395,156 385,160 395,164"/>
    <polygon points="466,222 470,232 474,222"/>
    <polygon points="360,251 350,255 360,259"/>
    <polygon points="267,316 277,320 267,324"/>
    <polygon points="480,316 490,320 480,324"/>
    <polygon points="702,306 706,296 710,306"/>
    <polygon points="806,230 810,220 814,230"/>
    <polygon points="690,201 680,205 690,209"/>
    <polygon points="636,110 646,114 636,118"/>
    <polygon points="650,156 640,160 650,164"/>
  </g>

  <!-- Air heater matrix (inside van) -->
  <rect x="720" y="245" width="180" height="80" rx="6" fill="#ffffff" stroke="#1f2937" stroke-width="1.5"/>
  <text x="810" y="268" font-size="13" font-weight="700" text-anchor="middle" fill="#1f2937">Air heater matrix</text>
  <g stroke="#b9cfe4" stroke-width="2">
    <line x1="736" y1="280" x2="736" y2="316"/><line x1="760" y1="280" x2="760" y2="316"/>
    <line x1="784" y1="280" x2="784" y2="316"/><line x1="808" y1="280" x2="808" y2="316"/>
    <line x1="832" y1="280" x2="832" y2="316"/><line x1="856" y1="280" x2="856" y2="316"/>
    <line x1="880" y1="280" x2="880" y2="316"/>
  </g>

  <!-- ============ HEAT EXCHANGERS ============ -->
  <rect x="300" y="290" width="130" height="90" rx="6" fill="#ffffff" stroke="#1f2937" stroke-width="1.5"/>
  <text x="365" y="303" font-size="13" font-weight="700" text-anchor="middle" fill="#1f2937">HX-1</text>
  <text x="365" y="366" font-size="11.5" text-anchor="middle" fill="#6b7280">Shower loop heat</text>

  <rect x="540" y="290" width="130" height="90" rx="6" fill="#ffffff" stroke="#1f2937" stroke-width="1.5"/>
  <text x="605" y="303" font-size="13" font-weight="700" text-anchor="middle" fill="#1f2937">HX-2</text>
  <text x="605" y="366" font-size="11.5" text-anchor="middle" fill="#6b7280">Hot water</text>

  <!-- ============ SHOWER ============ -->
  <rect x="60" y="290" width="150" height="320" rx="8" fill="#ffffff" stroke="#1f2937" stroke-width="1.5"/>
  <text x="135" y="316" font-size="13" font-weight="700" text-anchor="middle" fill="#1f2937">Shower</text>
  <rect x="140" y="364" width="22" height="15" rx="5" fill="#4b5563"/>
  <g fill="#7aa5c9">
    <circle cx="134" cy="392" r="1.8"/><circle cx="144" cy="400" r="1.8"/><circle cx="152" cy="390" r="1.8"/>
    <circle cx="158" cy="402" r="1.8"/><circle cx="148" cy="410" r="1.8"/><circle cx="138" cy="406" r="1.8"/>
  </g>
  <g stroke="#4b5563" stroke-width="2">
    <line x1="123" y1="592" x2="123" y2="600"/><line x1="135" y1="592" x2="135" y2="600"/><line x1="147" y1="592" x2="147" y2="600"/>
  </g>

  <!-- Shower mixer -->
  <rect x="240" y="430" width="110" height="60" rx="6" fill="#ffffff" stroke="#1f2937" stroke-width="1.5"/>
  <text x="295" y="464" font-size="12.5" font-weight="700" text-anchor="middle" fill="#1f2937">Shower mixer</text>

  <!-- HX-3 loop cooling exchanger -->
  <rect x="240" y="515" width="110" height="80" rx="6" fill="#ffffff" stroke="#1f2937" stroke-width="1.5"/>
  <text x="295" y="531" font-size="13" font-weight="700" text-anchor="middle" fill="#1f2937">HX-3</text>
  <text x="295" y="547" font-size="11" text-anchor="middle" fill="#6b7280">Loop cooling</text>
  <path d="M265 595 L265 575 L275 563 L285 583 L295 563 L305 583 L315 563 L325 575 L325 595" stroke="#1f6fbf" stroke-width="2" fill="none"/>

  <!-- ============ FILTER TRAIN ============ -->
  <g fill="#ffffff" stroke="#1f2937" stroke-width="1.5">
    <rect x="470" y="430" width="56" height="110" rx="4"/>
    <rect x="550" y="430" width="56" height="110" rx="4"/>
    <rect x="630" y="430" width="56" height="110" rx="4"/>
  </g>
  <g stroke="#d4d4d4" stroke-width="1.5">
    <line x1="558" y1="470" x2="598" y2="470"/><line x1="558" y1="492" x2="598" y2="492"/><line x1="558" y1="514" x2="598" y2="514"/>
    <line x1="638" y1="470" x2="678" y2="470"/><line x1="638" y1="492" x2="678" y2="492"/><line x1="638" y1="514" x2="678" y2="514"/>
  </g>
  <path d="M486 470 L492 458 L498 482 L504 458 L510 482 L516 470" stroke="#8b5cf6" stroke-width="1.5" fill="none"/>
  <text x="498" y="452" font-size="12.5" font-weight="700" text-anchor="middle" fill="#1f2937">UV</text>
  <text x="578" y="452" font-size="12.5" font-weight="700" text-anchor="middle" fill="#1f2937">5 µm</text>
  <text x="658" y="452" font-size="12.5" font-weight="700" text-anchor="middle" fill="#1f2937">40 µm</text>

  <!-- ============ RECIRCULATING SHOWER LOOP (orange) ============ -->
  <g stroke="#e07b28" stroke-width="2.5" fill="none">
    <path d="M240 460 H196 V372 H162"/>
    <line x1="135" y1="600" x2="135" y2="650"/>
    <line x1="167" y1="667" x2="209" y2="667"/>
    <line x1="241" y1="667" x2="760" y2="667"/>
    <line x1="354" y1="667" x2="354" y2="690"/>
    <line x1="560" y1="667" x2="560" y2="692"/>
    <line x1="284" y1="667" x2="284" y2="736"/>
    <path d="M760 667 V405 H658 V430"/>
    <line x1="760" y1="468" x2="788" y2="468"/>
    <path d="M658 540 V565 H578 V540"/>
    <path d="M578 430 V405 H498 V430"/>
    <path d="M498 540 V588 H430 V392 H330 V380"/>
    <line x1="430" y1="480" x2="419" y2="480"/>
    <line x1="430" y1="548" x2="350" y2="548"/>
    <path d="M295 515 V490"/>
  </g>
  <!-- Hot leg HX-1 to mixer (red) -->
  <path d="M300 346 H272 V430" stroke="#d32f2f" stroke-width="2.5" fill="none"/>

  <!-- Drain filter -->
  <rect x="103" y="650" width="64" height="34" rx="4" fill="#ffffff" stroke="#1f2937" stroke-width="1.5"/>
  <text x="135" y="702" font-size="12" text-anchor="middle" fill="#1f2937">Drain filter</text>

  <!-- P-1 loop pump -->
  <circle cx="225" cy="667" r="16" fill="#ffffff" stroke="#1f2937" stroke-width="1.5"/>
  <polygon points="218,659 218,675 234,667" fill="#1f2937"/>
  <text x="225" y="705" font-size="12" text-anchor="middle" fill="#1f2937">P-1 loop pump</text>

  <!-- Check valve after P-1 -->
  <polygon points="248,659 248,675 262,667" fill="#ffffff" stroke="#1f2937" stroke-width="1.5"/>
  <line x1="264" y1="657" x2="264" y2="677" stroke="#1f2937" stroke-width="2"/>

  <!-- Air blow-out port on loop (directly after P-1 check valve) -->
  <polygon points="276,700 292,700 284,708" fill="#ffffff" stroke="#1f2937" stroke-width="1.5"/>
  <polygon points="276,716 292,716 284,708" fill="#ffffff" stroke="#1f2937" stroke-width="1.5"/>
  <rect x="277" y="736" width="14" height="10" rx="2" fill="#ffffff" stroke="#1f2937" stroke-width="1.5"/>
  <line x1="284" y1="746" x2="284" y2="754" stroke="#1f2937" stroke-width="2"/>
  <text x="284" y="768" font-size="11" text-anchor="middle" fill="#6b7280">Air blow-out</text>

  <!-- ACC-1 accumulator (stub below line) -->
  <rect x="342" y="690" width="24" height="32" rx="10" fill="#ffffff" stroke="#1f2937" stroke-width="1.5"/>
  <line x1="346" y1="706" x2="362" y2="706" stroke="#1f2937" stroke-width="1"/>
  <text x="376" y="710" font-size="11.5" fill="#1f2937">Accumulator</text>

  <!-- Valve 2: motorised ball valve, loop flush to grey -->
  <polygon points="552,692 568,692 560,700" fill="#ffffff" stroke="#1f2937" stroke-width="1.5"/>
  <polygon points="552,708 568,708 560,700" fill="#ffffff" stroke="#1f2937" stroke-width="1.5"/>
  <line x1="566" y1="698" x2="574" y2="698" stroke="#1f2937" stroke-width="1.2"/>
  <rect x="574" y="689" width="20" height="18" rx="3" fill="#ffffff" stroke="#1f2937" stroke-width="1.2"/>
  <text x="584" y="702" font-size="11" font-weight="700" text-anchor="middle" fill="#1f2937">M</text>
  <circle cx="532" cy="700" r="11" fill="#1f2937"/>
  <text x="532" y="704" font-size="12" font-weight="700" text-anchor="middle" fill="#ffffff">2</text>

  <!-- Check valve (loop, before riser) -->
  <polygon points="648,659 648,675 664,667" fill="#ffffff" stroke="#1f2937" stroke-width="1.5"/>
  <line x1="666" y1="657" x2="666" y2="677" stroke="#1f2937" stroke-width="2"/>
  <text x="660" y="700" font-size="11.5" text-anchor="middle" fill="#1f2937">Check valve</text>

  <!-- PG-1 pressure gauge -->
  <circle cx="799" cy="468" r="11" fill="#ffffff" stroke="#1f2937" stroke-width="1.5"/>
  <line x1="799" y1="468" x2="805" y2="461" stroke="#1f2937" stroke-width="1.5"/>
  <text x="799" y="449" font-size="11" text-anchor="middle" fill="#1f2937">PG-1</text>

  <!-- PG-2 pressure gauge -->
  <circle cx="408" cy="480" r="11" fill="#ffffff" stroke="#1f2937" stroke-width="1.5"/>
  <line x1="408" y1="480" x2="414" y2="473" stroke="#1f2937" stroke-width="1.5"/>
  <text x="408" y="459" font-size="11" text-anchor="middle" fill="#1f2937">PG-2</text>

  <!-- Valve 3: motorised, fresh feed into filter train -->
  <polygon points="818,492 818,508 826,500" fill="#ffffff" stroke="#1f2937" stroke-width="1.5"/>
  <polygon points="834,492 834,508 826,500" fill="#ffffff" stroke="#1f2937" stroke-width="1.5"/>
  <line x1="826" y1="492" x2="826" y2="487" stroke="#1f2937" stroke-width="1.2"/>
  <rect x="816" y="469" width="20" height="18" rx="3" fill="#ffffff" stroke="#1f2937" stroke-width="1.2"/>
  <text x="826" y="482" font-size="11" font-weight="700" text-anchor="middle" fill="#1f2937">M</text>
  <circle cx="826" cy="530" r="11" fill="#1f2937"/>
  <text x="826" y="534" font-size="12" font-weight="700" text-anchor="middle" fill="#ffffff">3</text>

  <!-- Valve 1: motorised, loop cooling / make-up -->
  <polygon points="392,632 408,632 400,640" fill="#ffffff" stroke="#1f2937" stroke-width="1.5"/>
  <polygon points="392,648 408,648 400,640" fill="#ffffff" stroke="#1f2937" stroke-width="1.5"/>
  <line x1="392" y1="640" x2="384" y2="640" stroke="#1f2937" stroke-width="1.2"/>
  <rect x="364" y="631" width="20" height="18" rx="3" fill="#ffffff" stroke="#1f2937" stroke-width="1.2"/>
  <text x="374" y="644" font-size="11" font-weight="700" text-anchor="middle" fill="#1f2937">M</text>
  <circle cx="430" cy="640" r="11" fill="#1f2937"/>
  <text x="430" y="644" font-size="12" font-weight="700" text-anchor="middle" fill="#ffffff">1</text>

  <!-- ============ FRESH / COLD WATER (blue) ============ -->
  <g stroke="#1f6fbf" stroke-width="2.5" fill="none">
    <line x1="850" y1="850" x2="900" y2="850"/>
    <line x1="980" y1="780" x2="980" y2="758"/>
    <path d="M980 726 V640 H880 V395 H605 V380"/>
    <line x1="980" y1="668" x2="1004" y2="668"/>
    <line x1="980" y1="688" x2="908" y2="688"/>
    <line x1="980" y1="768" x2="1092" y2="768"/>
    <path d="M880 612 H774"/>
    <path d="M774 612 Q760 596 746 612"/>
    <path d="M746 612 H265 V595"/>
    <line x1="400" y1="612" x2="400" y2="632"/>
    <line x1="400" y1="648" x2="400" y2="667"/>
    <line x1="880" y1="500" x2="834" y2="500"/>
    <line x1="818" y1="500" x2="760" y2="500"/>
    <path d="M880 470 H1195 V358 H1230"/>
    <path d="M1195 470 V487 H1230"/>
    <path d="M325 595 V600 Q337 612 325 624 V655 Q337 667 325 679 V735 H548 Q560 723 572 735 H920 V780"/>
  </g>

  <!-- Check valve after P-2 -->
  <polygon points="972,714 988,714 980,700" fill="#ffffff" stroke="#1f2937" stroke-width="1.5"/>
  <line x1="970" y1="696" x2="990" y2="696" stroke="#1f2937" stroke-width="2"/>

  <!-- Air blow-out port on fresh line (after P-2 check valve) -->
  <polygon points="928,680 944,680 936,688" fill="#ffffff" stroke="#1f2937" stroke-width="1.5"/>
  <polygon points="928,696 944,696 936,688" fill="#ffffff" stroke="#1f2937" stroke-width="1.5"/>
  <rect x="896" y="683" width="12" height="10" rx="2" fill="#ffffff" stroke="#1f2937" stroke-width="1.5"/>
  <line x1="890" y1="688" x2="896" y2="688" stroke="#1f2937" stroke-width="2"/>
  <text x="930" y="670" font-size="11" text-anchor="middle" fill="#6b7280">Air blow-out</text>

  <!-- Fresh tank manual drain valve -->
  <polygon points="1096,760 1112,760 1104,768" fill="#ffffff" stroke="#1f2937" stroke-width="1.5"/>
  <polygon points="1096,776 1112,776 1104,768" fill="#ffffff" stroke="#1f2937" stroke-width="1.5"/>
  <line x1="1112" y1="768" x2="1162" y2="768" stroke="#1f6fbf" stroke-width="2.5"/>
  <g stroke="#6b7280" stroke-width="2">
    <line x1="1166" y1="752" x2="1166" y2="784"/>
    <line x1="1172" y1="757" x2="1172" y2="779"/>
    <line x1="1178" y1="762" x2="1178" y2="774"/>
  </g>
  <text x="1120" y="742" font-size="11" text-anchor="middle" fill="#6b7280">Tank drain</text>

  <!-- Fill port -->
  <circle cx="838" cy="850" r="12" fill="#ffffff" stroke="#1f2937" stroke-width="1.5"/>
  <line x1="832" y1="843" x2="844" y2="843" stroke="#1f2937" stroke-width="1.5"/>
  <text x="838" y="884" font-size="12" text-anchor="middle" fill="#1f2937">Fill port</text>

  <!-- Fresh water tank -->
  <rect x="900" y="780" width="260" height="140" rx="8" fill="#ffffff" stroke="#1f2937" stroke-width="1.5"/>
  <rect x="901.5" y="812" width="257" height="106.5" rx="6" fill="#e3eef9"/>
  <path d="M902 812 q16 -6 32 0 t32 0 t32 0 t32 0 t32 0 t32 0 t32 0 t32 0" stroke="#8fb6da" stroke-width="1.5" fill="none"/>
  <text x="1030" y="856" font-size="14" font-weight="700" text-anchor="middle" fill="#1f2937">Fresh water tank</text>
  <text x="1030" y="878" font-size="12" text-anchor="middle" fill="#4b6a8a">32 US gal</text>

  <!-- P-2 pump -->
  <circle cx="980" cy="742" r="16" fill="#ffffff" stroke="#1f2937" stroke-width="1.5"/>
  <polygon points="972,750 988,750 980,734" fill="#1f2937"/>
  <text x="1012" y="746" font-size="12" fill="#1f2937">P-2 pump</text>

  <!-- ACC-2 accumulator -->
  <rect x="1004" y="652" width="24" height="32" rx="10" fill="#ffffff" stroke="#1f2937" stroke-width="1.5"/>
  <line x1="1008" y1="668" x2="1024" y2="668" stroke="#1f2937" stroke-width="1"/>
  <text x="1038" y="672" font-size="11.5" fill="#1f2937">Accumulator</text>

  <!-- ============ HOT WATER DISTRIBUTION (red) ============ -->
  <g stroke="#d32f2f" stroke-width="2.5" fill="none">
    <line x1="670" y1="352" x2="1145" y2="352"/>
    <path d="M1145 352 V315 H1230"/>
    <path d="M1145 352 V447 H1183"/>
    <path d="M1183 447 Q1195 433 1207 447"/>
    <line x1="1207" y1="447" x2="1230" y2="447"/>
  </g>

  <!-- Sink diverter -->
  <rect x="1230" y="293" width="170" height="88" rx="6" fill="#ffffff" stroke="#1f2937" stroke-width="1.5"/>
  <text x="1315" y="342" font-size="13" font-weight="700" text-anchor="middle" fill="#1f2937">Sink diverter</text>
  <text x="1222" y="319" font-size="11" font-weight="700" text-anchor="end" fill="#d32f2f">H</text>
  <text x="1222" y="362" font-size="11" font-weight="700" text-anchor="end" fill="#1f6fbf">C</text>
  <line x1="1400" y1="337" x2="1450" y2="337" stroke="#4b5563" stroke-width="2.5"/>
  <polygon points="1428,333 1438,337 1428,341" fill="#4b5563"/>

  <!-- Sink -->
  <rect x="1450" y="302" width="110" height="70" rx="6" fill="#ffffff" stroke="#1f2937" stroke-width="1.5"/>
  <text x="1505" y="342" font-size="13" font-weight="700" text-anchor="middle" fill="#1f2937">Sink</text>

  <!-- Outdoor shower diverter -->
  <rect x="1230" y="425" width="170" height="88" rx="6" fill="#ffffff" stroke="#1f2937" stroke-width="1.5"/>
  <text x="1315" y="463" font-size="13" font-weight="700" text-anchor="middle" fill="#1f2937">Outdoor shower</text>
  <text x="1315" y="481" font-size="12" text-anchor="middle" fill="#6b7280">diverter</text>
  <text x="1222" y="451" font-size="11" font-weight="700" text-anchor="end" fill="#d32f2f">H</text>
  <text x="1222" y="491" font-size="11" font-weight="700" text-anchor="end" fill="#1f6fbf">C</text>
  <line x1="1400" y1="469" x2="1436" y2="469" stroke="#4b5563" stroke-width="2.5"/>
  <polygon points="1424,465 1434,469 1424,473" fill="#4b5563"/>

  <!-- Outdoor shower head -->
  <rect x="1436" y="432" width="100" height="74" rx="6" fill="#ffffff" stroke="#1f2937" stroke-width="1.5"/>
  <text x="1486" y="463" font-size="12" font-weight="700" text-anchor="middle" fill="#1f2937">Outdoor</text>
  <text x="1486" y="480" font-size="12" font-weight="700" text-anchor="middle" fill="#1f2937">shower head</text>
  <line x1="1486" y1="506" x2="1486" y2="545" stroke="#8a8a8a" stroke-width="2.5"/>
  <g stroke="#6b7280" stroke-width="2">
    <line x1="1470" y1="548" x2="1502" y2="548"/>
    <line x1="1475" y1="554" x2="1497" y2="554"/>
    <line x1="1480" y1="560" x2="1492" y2="560"/>
  </g>
  <text x="1486" y="582" font-size="11" text-anchor="middle" fill="#6b7280">Runoff to ground</text>

  <!-- Mini-split AC -->
  <rect x="1240" y="590" width="170" height="80" rx="6" fill="#ffffff" stroke="#1f2937" stroke-width="1.5"/>
  <text x="1325" y="626" font-size="13" font-weight="700" text-anchor="middle" fill="#1f2937">Mini-split AC</text>
  <text x="1325" y="646" font-size="11.5" text-anchor="middle" fill="#6b7280">indoor unit</text>

  <!-- Toilet urine diverter -->
  <rect x="1420" y="720" width="120" height="70" rx="6" fill="#ffffff" stroke="#1f2937" stroke-width="1.5"/>
  <text x="1480" y="750" font-size="12.5" font-weight="700" text-anchor="middle" fill="#1f2937">Toilet</text>
  <text x="1480" y="768" font-size="11" text-anchor="middle" fill="#6b7280">urine diverter</text>

  <!-- ============ GREY WATER (drains) ============ -->
  <g stroke="#8a8a8a" stroke-width="2.5" fill="none">
    <path d="M560 708 V758 H778 V942 H1200 V1035"/>
    <path d="M1548 372 V1035 H1160"/>
    <line x1="1325" y1="670" x2="1325" y2="1035"/>
    <line x1="1480" y1="790" x2="1480" y2="1035"/>
    <path d="M1160 1035 V1055 Q1160 1078 1138 1078 H1122 Q1100 1078 1100 1055 V1035"/>
    <line x1="1100" y1="1035" x2="1070" y2="1035"/>
    <line x1="790" y1="1060" x2="718" y2="1060"/>
    <line x1="718" y1="1060" x2="668" y2="1060"/>
  </g>
  <text x="1130" y="1101" font-size="11" text-anchor="middle" fill="#6b7280">P-trap</text>
  <text x="1262" y="1062" font-size="11" text-anchor="middle" fill="#6b7280">Y connectors</text>
  <text x="1540" y="704" font-size="11" text-anchor="end" fill="#6b7280">Sink drain</text>
  <text x="1333" y="760" font-size="11" fill="#6b7280">AC condensate</text>
  <text x="600" y="748" font-size="11" fill="#6b7280">Loop flush</text>

  <!-- Grey tank dump to ground (motorised) -->
  <polygon points="718,1052 734,1052 726,1060" fill="#ffffff" stroke="#1f2937" stroke-width="1.5"/>
  <polygon points="718,1068 734,1068 726,1060" fill="#ffffff" stroke="#1f2937" stroke-width="1.5"/>
  <line x1="726" y1="1052" x2="726" y2="1050" stroke="#1f2937" stroke-width="1.2"/>
  <rect x="716" y="1032" width="20" height="18" rx="3" fill="#ffffff" stroke="#1f2937" stroke-width="1.2"/>
  <text x="726" y="1045" font-size="11" font-weight="700" text-anchor="middle" fill="#1f2937">M</text>
  <g stroke="#6b7280" stroke-width="2">
    <line x1="664" y1="1044" x2="664" y2="1076"/>
    <line x1="658" y1="1049" x2="658" y2="1071"/>
    <line x1="652" y1="1054" x2="652" y2="1066"/>
  </g>
  <text x="712" y="1096" font-size="11" text-anchor="middle" fill="#6b7280">Dump to ground</text>

  <!-- Grey water tank -->
  <rect x="790" y="965" width="280" height="140" rx="8" fill="#ffffff" stroke="#1f2937" stroke-width="1.5"/>
  <rect x="791.5" y="997" width="277" height="106.5" rx="6" fill="#ececec"/>
  <path d="M796 997 q16 -6 32 0 t32 0 t32 0 t32 0 t32 0 t32 0 t32 0 t32 0" stroke="#bdbdbd" stroke-width="1.5" fill="none"/>
  <text x="930" y="1032" font-size="14" font-weight="700" text-anchor="middle" fill="#1f2937">Grey water tank</text>
  <text x="930" y="1054" font-size="12" text-anchor="middle" fill="#6b6b6b">20 US gal</text>

  <!-- ============ JUNCTION DOTS ============ -->
  <g fill="#e07b28">
    <circle cx="284" cy="667" r="4"/><circle cx="400" cy="667" r="4"/><circle cx="354" cy="667" r="4"/><circle cx="560" cy="667" r="4"/>
    <circle cx="760" cy="500" r="4"/><circle cx="760" cy="468" r="4"/>
    <circle cx="430" cy="480" r="4"/><circle cx="430" cy="548" r="4"/>
  </g>
  <g fill="#1f6fbf">
    <circle cx="400" cy="612" r="4"/><circle cx="880" cy="612" r="4"/><circle cx="880" cy="500" r="4"/>
    <circle cx="880" cy="470" r="4"/><circle cx="1195" cy="470" r="4"/>
    <circle cx="980" cy="668" r="4"/><circle cx="980" cy="688" r="4"/><circle cx="980" cy="768" r="4"/>
  </g>
  <circle cx="1145" cy="352" r="4" fill="#d32f2f"/>
  <g fill="#8a8a8a">
    <circle cx="1480" cy="1035" r="4"/><circle cx="1325" cy="1035" r="4"/><circle cx="1200" cy="1035" r="4"/>
  </g>

  <!-- ============ FLOW ARROWS ============ -->
  <g fill="#e07b28">
    <polygon points="131,622 135,632 139,622"/>
    <polygon points="185,663 195,667 185,671"/>
    <polygon points="440,663 450,667 440,671"/>
    <polygon points="610,663 620,667 610,671"/>
    <polygon points="756,600 760,590 764,600"/>
    <polygon points="716,401 706,405 716,409"/>
    <polygon points="622,561 612,565 622,569"/>
    <polygon points="542,401 532,405 542,409"/>
    <polygon points="470,584 460,588 470,592"/>
    <polygon points="426,528 430,518 434,528"/>
    <polygon points="392,544 382,548 392,552"/>
    <polygon points="291,506 295,498 299,506"/>
    <polygon points="386,388 376,392 386,396"/>
    <polygon points="192,420 196,410 200,420"/>
    <polygon points="216,456 206,460 216,464"/>
  </g>
  <g fill="#d32f2f">
    <polygon points="268,388 272,398 276,388"/>
    <polygon points="895,348 905,352 895,356"/>
    <polygon points="1141,394 1145,404 1149,394"/>
    <polygon points="1192,311 1202,315 1192,319"/>
    <polygon points="1160,443 1170,447 1160,451"/>
  </g>
  <g fill="#1f6fbf">
    <polygon points="868,846 878,850 868,854"/>
    <polygon points="976,590 980,580 984,590"/>
    <polygon points="976,634 980,624 984,634"/>
    <polygon points="876,545 880,535 884,545"/>
    <polygon points="876,435 880,425 884,435"/>
    <polygon points="935,636 925,640 935,644"/>
    <polygon points="730,391 720,395 730,399"/>
    <polygon points="820,608 810,612 820,616"/>
    <polygon points="520,608 510,612 520,616"/>
    <polygon points="396,656 400,664 404,656"/>
    <polygon points="796,496 786,500 796,504"/>
    <polygon points="1030,466 1040,470 1030,474"/>
    <polygon points="1191,414 1195,404 1199,414"/>
    <polygon points="321,700 325,710 329,700"/>
    <polygon points="700,731 710,735 700,739"/>
    <polygon points="856,731 866,735 856,739"/>
    <polygon points="916,762 920,772 924,762"/>
    <polygon points="1030,764 1040,768 1030,772"/>
  </g>
  <g fill="#8a8a8a">
    <polygon points="556,744 560,754 564,744"/>
    <polygon points="670,754 680,758 670,762"/>
    <polygon points="774,850 778,860 782,850"/>
    <polygon points="980,938 990,942 980,946"/>
    <polygon points="1196,995 1200,1005 1204,995"/>
    <polygon points="1544,700 1548,710 1552,700"/>
    <polygon points="1321,850 1325,860 1329,850"/>
    <polygon points="1476,900 1480,910 1484,900"/>
    <polygon points="1450,1031 1440,1035 1450,1039"/>
    <polygon points="1290,1031 1280,1035 1290,1039"/>
    <polygon points="1092,1031 1082,1035 1092,1039"/>
    <polygon points="760,1056 750,1060 760,1064"/>
    <polygon points="700,1056 690,1060 700,1064"/>
  </g>

  <!-- ============ LEGEND ============ -->
  <rect x="60" y="785" width="690" height="185" rx="8" fill="#fafafa" stroke="#d0d0d0" stroke-width="1"/>
  <text x="80" y="814" font-size="13" font-weight="700" fill="#1f2937">Legend</text>
  <line x1="80" y1="840" x2="140" y2="840" stroke="#1f6fbf" stroke-width="2.5"/>
  <text x="152" y="844" font-size="11.5" fill="#1f2937">Cold / fresh water</text>
  <line x1="80" y1="866" x2="140" y2="866" stroke="#d32f2f" stroke-width="2.5"/>
  <text x="152" y="870" font-size="11.5" fill="#1f2937">Hot water</text>
  <line x1="80" y1="892" x2="140" y2="892" stroke="#e07b28" stroke-width="2.5"/>
  <text x="152" y="896" font-size="11.5" fill="#1f2937">Recirculated shower water</text>
  <line x1="80" y1="918" x2="140" y2="918" stroke="#b3261e" stroke-width="2.5" stroke-dasharray="8 6"/>
  <text x="152" y="922" font-size="11.5" fill="#1f2937">Engine coolant</text>
  <line x1="80" y1="944" x2="140" y2="944" stroke="#8a8a8a" stroke-width="2.5"/>
  <text x="152" y="948" font-size="11.5" fill="#1f2937">Grey water / drains</text>

  <circle cx="410" cy="840" r="9" fill="#1f2937"/>
  <text x="410" y="844" font-size="11" font-weight="700" text-anchor="middle" fill="#ffffff">1</text>
  <text x="428" y="844" font-size="11.5" fill="#1f2937">Fresh into loop — cooling / make-up (motorised)</text>
  <circle cx="410" cy="866" r="9" fill="#1f2937"/>
  <text x="410" y="870" font-size="11" font-weight="700" text-anchor="middle" fill="#ffffff">2</text>
  <text x="428" y="870" font-size="11.5" fill="#1f2937">Loop flush to grey water (motorised)</text>
  <circle cx="410" cy="892" r="9" fill="#1f2937"/>
  <text x="410" y="896" font-size="11" font-weight="700" text-anchor="middle" fill="#ffffff">3</text>
  <text x="428" y="896" font-size="11.5" fill="#1f2937">Fresh feed to filter train — flush mode (motorised)</text>
  <text x="428" y="922" font-size="11" fill="#6b7280">M = motorised · PG = pressure gauge · HX-3 cools cold side</text>
  <text x="428" y="942" font-size="11" fill="#6b7280">Air ports by pumps: blow out lines (winterising)</text>
  <text x="428" y="962" font-size="11" fill="#6b7280">Combi valve: small heat loop first; opens to engine ≈70 °C</text>
</svg>
